<svg width="104" height="19" viewBox="0 0 104 19" fill="none" xmlns="http://www.w3.org/2000/svg">
<path d="M92.8484 16.3601V10.432H102.087V8.06457H92.8484V2.65611H103.665V0.269461H90.2115V18.7468H103.935V16.3601H92.8484ZM65.5174 15.5517L56.9332 0.269461H53.2377V18.7468H55.8746V3.46449L64.4588 18.7468H68.1543V0.269461H65.5174V15.5517ZM38.3404 10.432H47.579V8.06457H38.3404V2.65611H49.1573V0.269461H35.7035V18.7468H49.4268V16.3601H38.3404V10.432ZM79.2599 2.38665H79.5294C81.7813 2.38665 83.4558 3.71471 83.5905 5.81265H86.2274C86.0926 2.25192 83.475 0 79.3946 0C75.4105 0 72.7928 2.3674 72.7928 5.27373C72.7928 8.18005 74.5058 9.8738 77.4699 10.4705L80.434 11.0864C82.3779 11.4906 83.3403 12.3567 83.3403 13.858C83.3403 15.3593 81.993 16.6296 79.5101 16.6296H79.2406C76.4691 16.6296 74.5251 15.3015 74.5251 12.7994H71.8882C72.023 16.8798 74.7945 18.997 79.1444 18.997C83.2248 18.997 85.9772 16.9953 85.9772 13.7425C85.9772 10.7399 84.1294 9.04618 80.9344 8.41102L77.9703 7.8336C76.4113 7.52565 75.4297 6.67877 75.4297 5.25448C75.4297 3.61847 76.9695 2.38665 79.2599 2.38665ZM24.7326 2.38665H25.0021C27.254 2.38665 28.9285 3.71471 29.0632 5.81265H31.7001C31.5654 2.25192 28.9478 0 24.8481 0C20.8639 0 18.2463 2.3674 18.2463 5.27373C18.2463 8.18005 19.9593 9.8738 22.9234 10.4705L25.8875 11.0864C27.8314 11.4906 28.7938 12.3567 28.7938 13.858C28.7938 15.3593 27.4465 16.6296 24.9636 16.6296H24.6941C21.9225 16.6296 19.9786 15.3015 19.9786 12.7994H17.3417C17.4764 16.8798 20.248 18.997 24.5979 18.997C28.6783 18.997 31.4306 16.9953 31.4306 13.7425C31.4306 10.7399 29.5829 9.04618 26.3879 8.41102L23.4238 7.8336C21.8648 7.52565 20.8832 6.67877 20.8832 5.25448C20.9024 3.61847 22.423 2.38665 24.7326 2.38665ZM7.39092 2.38665H7.66038C9.9123 2.38665 11.5868 3.71471 11.7215 5.81265H14.3584C14.2237 2.25192 11.6061 0 7.52565 0C3.54148 0 0.923865 2.38665 0.923865 5.29297C0.923865 8.1993 2.63686 9.89305 5.60093 10.4897L8.565 11.1056C10.509 11.5098 11.4713 12.3759 11.4713 13.8772C11.4713 15.3785 10.1048 16.6296 7.62188 16.6296H7.35242C4.58083 16.6296 2.63686 15.3015 2.63686 12.7994H0C0.13473 16.8798 2.90632 18.997 7.25619 18.997C11.3366 18.997 14.0889 16.9953 14.0889 13.7425C14.0889 10.7399 12.2412 9.04618 9.04618 8.41102L6.08211 7.8336C4.52309 7.52565 3.54148 6.67877 3.54148 5.25448C3.56073 3.61847 5.1005 2.38665 7.39092 2.38665Z" fill="black"/>
</svg>
